<svg xmlns="http://www.w3.org/2000/svg" xmlns:xlink="http://www.w3.org/1999/xlink" width="35" height="25" viewBox="0 0 35 25">
    <defs>
        <path id="rc0qc1ozsa" d="M0 0L33.655 0 33.655 24.71 0 24.71z"/>
    </defs>
    <g fill="none" fill-rule="evenodd">
        <g>
            <g>
                <g transform="translate(-263.000000, -585.000000) translate(76.000000, 582.000000) translate(187.631944, 3.080679)">
                    <mask id="b8s7qbvf4b" fill="#fff">
                        <use xlink:href="#rc0qc1ozsa"/>
                    </mask>
                    <path fill="#353535" d="M12.129 22.728H3.662l10.042-8.847.818.682c.669.558 1.488.837 2.308.837.82 0 1.64-.28 2.31-.837l.814-.68 10.039 8.845H12.129zM2.035 21.527c-.04-.144-.063-.294-.063-.45V4.095l10.195 8.504-10.132 8.928zM30.04 1.982c.3 0 .582.082.825.224L17.88 13.038c-.608.507-1.49.507-2.099 0L2.794 2.204c.241-.14.522-.222.821-.222H30.04zm1.643 19.095c0 .156-.022.306-.062.45L21.49 12.6 31.683 4.1v16.978zM30.04 0H3.615C1.622 0 0 1.63 0 3.634v17.443c0 2.003 1.622 3.633 3.615 3.633H30.04c1.993 0 3.615-1.63 3.615-3.633V3.634C33.655 1.63 32.033 0 30.04 0z" mask="url(#b8s7qbvf4b)"/>
                </g>
            </g>
        </g>
    </g>
</svg>
