<svg xmlns="http://www.w3.org/2000/svg" width="35" height="24" viewBox="0 0 35 24">
    <g fill="none" fill-rule="evenodd" stroke="#000">
        <path stroke-width=".9" d="M2.359 2.756s6.327-5.157 15.266-.047c0 0 7.56-4.969 15.169-.047v19.64s-5.609-5.25-15.311-.375c0 0-7.516-4.828-15.124-.046V2.756zM17.576 2.803v18.75"/>
        <path stroke-width=".525" d="M5.396 5.851s3.43-2.14 8.904 0M5.396 10.717s3.43-2.14 8.904 0M5.396 15.517s3.43-2.14 8.904 0M20.613 5.851s3.43-2.14 8.904 0M20.613 10.717s3.43-2.14 8.904 0M20.613 15.517s3.43-2.14 8.904 0"/>
        <path stroke-width=".9" d="M32.794 4.9h1.775v18.653H.457V4.9h1.902M17.513 23.553v-1.625"/>
    </g>
</svg>
