<svg xmlns="http://www.w3.org/2000/svg" width="17" height="22" viewBox="0 0 17 22">
    <g fill="none" fill-rule="evenodd">
        <g>
            <g>
                <g>
                    <g>
                        <path fill="#FFF" d="M6.503 21.948L17 21.948 16.707 19.513 16.344 19.513 16.344 16.204 17 14.71 16.976 8.963 13.51 6.944 9.726 6.528 8.855 1.538 8.5 0.579 7.618 0.036 6.834 0.579 6.503 1.538 6.503 9.947 6.061 10.475 5.535 10.475 3.281 8.963 1.42 8.188 0.058 8.963 6.061 15.63 7.309 16.267 7.309 19.513 6.834 19.513z" transform="translate(-37 -2145) translate(28 2048) translate(0 88) translate(9 9)"/>
                        <g stroke="#000" stroke-width="1.139">
                            <path d="M16.17 17.89l.011-1.613.796-1.315v-6S14.56 6.529 9.726 6.529L8.714.957C8.618.423 8.156.036 7.618.036c-.616 0-1.115.502-1.115 1.123V9.75c0 .306-.17.586-.442.724-.27.139-.596.111-.841-.07-.858-.637-1.846-1.37-1.94-1.442-1.988-1.547-3.222 0-3.222 0l5.679 6.514 1.572.79v1.623M6.503 21.948L6.788 19.513 16.707 19.513 16.976 21.948" transform="translate(-37 -2145) translate(28 2048) translate(0 88) translate(9 9)"/>
                        </g>
                    </g>
                </g>
            </g>
        </g>
    </g>
</svg>
