<svg xmlns="http://www.w3.org/2000/svg" width="34" height="21" viewBox="0 0 34 21">
    <g fill="none" fill-rule="evenodd" stroke="#000">
        <path stroke-width=".9" d="M.453 20.783h33.524V.45H.453z"/>
        <path stroke-width=".525" d="M22.453 10.435c0 2.872-2.346 5.2-5.239 5.2-2.892 0-5.237-2.328-5.237-5.2 0-2.872 2.345-5.199 5.237-5.199 2.893 0 5.239 2.327 5.239 5.2z"/>
        <path stroke-width=".525" d="M15.859 12.57V8.475l4.123 2.038z"/>
        <path stroke-width=".9" d="M5.306.45v20.333M29.124.45v20.333"/>
        <path stroke-width=".525" d="M.453 3.724h4.853M.453 7.17h4.853M.453 10.616h4.853M.453 17.509h4.853M.453 14.063h4.853M29.124 3.724h4.853M29.124 7.17h4.853M29.124 10.616h4.853M29.124 17.509h4.853M29.124 14.063h4.853"/>
    </g>
</svg>
