<svg xmlns="http://www.w3.org/2000/svg" width="26" height="26" viewBox="0 0 26 26">
    <g fill="none" fill-rule="evenodd">
        <g fill="#FFCE00">
            <g>
                <g stroke="#FFCE00" stroke-linejoin="round" stroke-width=".2">
                    <path d="M2.744 6.551c.01-2.63 2.154-4.766 4.786-4.766 2.634 0 4.777 2.136 4.788 4.766h.41c-.011-2.856-2.338-5.176-5.198-5.176-2.858 0-5.185 2.32-5.196 5.176h.41z" transform="translate(-532 -2629) translate(532 2629) translate(1.563 .625)"/>
                    <path d="M1.27 6.65C1.28 3.208 4.084.41 7.53.41c3.447 0 6.251 2.797 6.262 6.24h.41C14.19 2.983 11.202 0 7.53 0 3.859 0 .87 2.982.86 6.65h.41z" transform="translate(-532 -2629) translate(532 2629) translate(1.563 .625)"/>
                </g>
                <path d="M22.563 13.99c0-1.268-.984-2.298-2.193-2.298-.699 0-1.311.207-1.71.538-.337-.606-1.111-1.03-2.01-1.03-.692 0-1.31.252-1.711.643-.339-.7-1.111-1.192-2.01-1.192-.593 0-1.132.216-1.528.564V6.93c0-1.268-.983-2.299-2.191-2.299-1.21 0-2.193 1.031-2.193 2.299v9.953l-.798-.79c-.882-.873-2.295-.895-3.15-.049-.854.846-.602 2.472.563 3.624l4.919 4.867c.065.064.15.096.235.096.007 0 .013-.003.02-.004l.006.002h10.764c1.646 0 2.986-1.326 2.986-2.956V18.51v-4.52z" transform="translate(-532 -2629) translate(532 2629)"/>
            </g>
        </g>
    </g>
</svg>
