<svg xmlns="http://www.w3.org/2000/svg" xmlns:xlink="http://www.w3.org/1999/xlink" width="25" height="25" viewBox="0 0 25 25">
    <defs>
        <path id="a" d="M0 .235h20.644v21.124H0z"/>
    </defs>
    <g fill="none" fill-rule="evenodd">
        <g transform="translate(2.143 3.12)">
            <mask id="b" fill="#fff">
                <use xlink:href="#a"/>
            </mask>
            <path fill="#000" d="M19.959 18.235c0 1.338-1.076 2.428-2.398 2.428H6.563l-4.975-5.037c-.92-.93-1.185-2.233-.58-2.846.615-.623 1.638-.599 2.281.051l1.41 1.426c.012.013.028.02.043.03.021.016.042.034.067.045a.347.347 0 0 0 .131.027l.01-.002a.342.342 0 0 0 .306-.213c.012-.028.015-.059.018-.089.002-.015.01-.028.01-.043V2.662C5.283 1.708 5.99.93 6.86.93s1.578.778 1.578 1.734v6.005l-.001.021v1.749c0 .192.154.347.343.347.189 0 .342-.155.342-.347v-.395-1.357c.003-.771.71-1.398 1.578-1.398.87 0 1.578.628 1.578 1.401V10.438c0 .192.153.347.342.347.19 0 .344-.155.344-.347V8.973c.004-.6.724-1.107 1.577-1.107.855 0 1.577.509 1.577 1.112v1.46c0 .192.153.347.342.347.19 0 .343-.155.343-.347V9.236c.002-.402.65-.85 1.577-.85.87 0 1.579.777 1.579 1.733v4.368l-.001.004v3.744zm.686-8.116c0-1.338-1.016-2.427-2.264-2.427-.72 0-1.353.22-1.764.569-.349-.64-1.148-1.088-2.075-1.088-.715 0-1.352.266-1.767.68-.35-.74-1.147-1.26-2.074-1.26-.613 0-1.169.229-1.577.596V2.663c0-1.34-1.015-2.428-2.263-2.428S4.598 1.324 4.598 2.663v10.512l-.824-.834c-.91-.922-2.368-.946-3.25-.051-.883.893-.623 2.61.58 3.826l5.078 5.142a.342.342 0 0 0 .242.101c.007 0 .013-.004.02-.004l.007.001h11.11c1.7 0 3.084-1.4 3.083-3.122v-3.34V10.12z" mask="url(#b)"/>
        </g>
        <path fill="#000" d="M4.219 6.798c.01-2.61 2.11-4.73 4.69-4.73 2.58 0 4.68 2.12 4.69 4.73h.402c-.011-2.834-2.29-5.135-5.092-5.135-2.801 0-5.08 2.301-5.091 5.135h.4z"/>
        <path fill="#000" d="M2.774 6.798C2.785 3.382 5.534.607 8.91.607c3.376 0 6.124 2.775 6.135 6.19h.401C15.435 3.159 12.507.2 8.91.2 5.312.2 2.384 3.158 2.373 6.798h.401z"/>
    </g>
</svg>
