<svg xmlns="http://www.w3.org/2000/svg" width="28" height="28" viewBox="0 0 28 28">
    <g fill="none" fill-rule="evenodd">
        <g fill="#353535">
            <g>
                <path d="M25.064 19.915c0 2.84-2.308 5.149-5.149 5.149H7.59c-2.84 0-5.15-2.308-5.15-5.149V7.591c0-2.84 2.31-5.15 5.15-5.15h12.327c2.84 0 5.15 2.31 5.15 5.15v12.324h-.003zM19.915 0H7.59C3.406 0 0 3.406 0 7.588v12.327c0 4.186 3.406 7.59 7.59 7.59h12.327c4.184 0 7.588-3.404 7.588-7.59V7.591c0-4.185-3.404-7.591-7.59-7.591z" transform="translate(-76.000000, -582.000000) translate(76.000000, 582.000000)"/>
                <path d="M13.753 18.26c-2.485 0-4.508-2.022-4.508-4.507 0-2.488 2.024-4.51 4.508-4.51 2.486 0 4.506 2.022 4.506 4.51 0 2.485-2.02 4.507-4.506 4.507m0-11.384c-3.792 0-6.877 3.086-6.877 6.878 0 3.791 3.085 6.875 6.877 6.875 3.791 0 6.876-3.084 6.876-6.875 0-3.792-3.085-6.878-6.876-6.878M19.94 4.126c-.543 0-1.073.218-1.459.602-.384.382-.603.916-.603 1.46 0 .541.219 1.073.603 1.46.386.381.916.604 1.458.604.546 0 1.075-.223 1.464-.605.384-.384.601-.916.601-1.46 0-.543-.217-1.077-.6-1.459-.387-.384-.915-.602-1.465-.602" transform="translate(-76.000000, -582.000000) translate(76.000000, 582.000000)"/>
            </g>
        </g>
    </g>
</svg>
