<?xml version="1.0" standalone="no"?>
<!DOCTYPE svg PUBLIC "-//W3C//DTD SVG 20010904//EN"
 "http://www.w3.org/TR/2001/REC-SVG-20010904/DTD/svg10.dtd">
<svg version="1.0" xmlns="http://www.w3.org/2000/svg"
 width="920.000000pt" height="920.000000pt" viewBox="0 0 920.000000 920.000000"
 preserveAspectRatio="xMidYMid meet">
<metadata>
Created by potrace 1.11, written by Peter Selinger 2001-2013
</metadata>
<g transform="translate(0.000000,920.000000) scale(0.100000,-0.100000)"
fill="#000000" stroke="none">
<path d="M1390 4600 l0 -4600 3210 0 3210 0 0 4600 0 4600 -3210 0 -3210 0 0
-4600z m1093 3677 c48 -1 87 2 87 6 0 5 4 6 9 2 8 -4 150 -6 271 -4 8 0 63 -1
122 -1 59 -1 110 0 115 3 4 2 17 1 28 -3 11 -4 34 -4 52 1 22 4 33 3 34 -5 0
-7 2 -7 6 2 2 6 9 10 13 7 7 -4 153 -6 270 -4 8 0 62 0 120 0 58 0 112 0 120
0 8 0 24 0 35 -1 45 -2 172 -2 200 0 11 1 40 2 65 1 25 0 52 -1 60 0 8 0 53 0
100 0 47 0 92 0 100 0 8 0 75 0 148 -1 74 -1 136 1 139 3 3 3 16 2 29 -3 14
-6 26 -6 29 0 3 5 12 7 19 4 23 -9 156 -9 156 -1 0 5 4 6 9 2 8 -4 150 -6 271
-4 8 0 62 0 120 0 58 0 112 0 120 0 8 0 24 0 35 -1 11 0 46 -1 78 0 32 0 61
-1 65 -4 5 -3 14 -1 22 4 7 4 24 4 36 0 14 -6 26 -5 29 1 4 5 11 7 16 3 8 -4
182 -6 279 -3 8 1 35 0 60 0 25 0 52 -1 60 0 27 0 194 0 230 -1 145 -5 170 -4
170 3 0 5 4 6 9 2 8 -4 55 -5 276 -4 11 0 59 0 108 -1 l87 0 0 -3679 c0 -3498
-1 -3680 -17 -3680 -10 0 -42 -1 -71 -1 -29 -1 -62 2 -72 5 -11 4 -20 2 -20
-3 0 -5 -19 -6 -42 -3 -24 4 -56 4 -73 1 -16 -3 -50 -3 -75 1 -25 4 -46 4 -48
0 -1 -4 -22 -5 -45 -2 -23 4 -55 4 -72 1 -16 -3 -50 -3 -75 1 -25 4 -46 4 -48
0 -1 -4 -22 -5 -45 -2 -23 4 -55 4 -72 1 -16 -3 -50 -3 -75 1 -25 4 -47 3 -48
-2 -2 -5 -8 -7 -13 -4 -7 5 -45 6 -129 4 -8 0 -50 1 -93 2 -42 1 -80 0 -83 -3
-3 -3 -21 -2 -40 2 -19 5 -37 4 -40 -1 -3 -5 -10 -7 -15 -4 -11 7 -218 9 -225
2 -3 -3 -21 -1 -40 3 -19 5 -37 4 -40 -1 -3 -5 -10 -7 -15 -4 -11 7 -218 9
-225 2 -3 -3 -21 -1 -40 3 -19 5 -37 4 -40 -1 -3 -5 -10 -7 -15 -4 -11 7 -218
9 -225 2 -3 -3 -21 -1 -40 3 -19 4 -36 4 -39 -1 -3 -4 -11 -6 -18 -3 -19 7
-227 10 -227 3 0 -3 -19 -3 -42 0 -24 4 -56 4 -73 1 -16 -3 -50 -3 -75 1 -25
4 -46 4 -48 0 -1 -4 -22 -5 -45 -2 -23 4 -55 4 -72 1 -16 -3 -50 -3 -75 1 -25
4 -46 4 -48 0 -1 -4 -22 -5 -45 -2 -23 4 -55 4 -72 1 -16 -3 -50 -3 -75 1 -25
4 -46 4 -48 0 -1 -4 -22 -5 -45 -2 -23 4 -55 4 -72 1 -16 -3 -50 -3 -75 1 -25
4 -47 3 -48 -2 -2 -5 -8 -7 -13 -4 -7 5 -45 6 -129 4 -8 0 -50 1 -93 2 -42 1
-80 0 -83 -3 -3 -3 -21 -2 -40 2 -19 5 -37 4 -40 -1 -3 -5 -10 -7 -15 -4 -11
7 -218 9 -225 2 -3 -3 -21 -1 -40 3 -19 5 -37 4 -40 -1 -3 -5 -10 -7 -15 -3
-6 3 -41 5 -77 4 -37 -1 -74 -1 -82 -1 -8 0 -63 0 -122 0 l-108 1 0 3681 c0
2941 3 3680 13 3676 6 -2 21 -1 32 3 11 4 25 5 31 3 5 -2 49 -5 97 -6z"/>
</g>
</svg>
