<svg xmlns="http://www.w3.org/2000/svg" width="27" height="22" viewBox="0 0 27 22">
    <g fill="none" fill-rule="evenodd">
        <g fill="#353535">
            <g>
                <g>
                    <path d="M22.943 3.418C24.045 2.744 24.89 1.674 25.287.4c-1.031.626-2.172 1.079-3.388 1.324C20.928.662 19.54 0 18.005 0c-2.946 0-5.334 2.444-5.334 5.458 0 .428.044.845.136 1.243C8.374 6.473 4.444 4.302 1.81.998c-.46.809-.722 1.746-.722 2.745 0 1.893.942 3.564 2.374 4.544-.875-.028-1.697-.276-2.418-.682v.067c0 2.645 1.838 4.852 4.282 5.352-.449.128-.92.192-1.408.192-.343 0-.679-.033-1.002-.097.677 2.167 2.648 3.748 4.983 3.79-1.827 1.465-4.127 2.336-6.626 2.336-.43 0-.856-.023-1.273-.075 2.361 1.547 5.166 2.452 8.179 2.452 9.815 0 15.179-8.317 15.179-15.53 0-.238-.003-.473-.014-.706 1.043-.77 1.95-1.732 2.662-2.827-.957.435-1.986.728-3.063.86z" transform="translate(-142.000000, -586.000000) translate(76.000000, 582.000000) translate(66.710863, 4.161963)"/>
                </g>
            </g>
        </g>
    </g>
</svg>
